<?xml version="1.0" ?><svg enable-background="new 0 0 32 32" id="Filled_Outline" version="1.1" viewBox="0 0 32 32" xml:space="preserve" xmlns="http://www.w3.org/2000/svg" xmlns:xlink="http://www.w3.org/1999/xlink"><title/><desc/><g><g><path d="M15,14c0,3.899-3.188,7.054-7.1,6.999c-3.717-0.052-6.848-3.182-6.9-6.9C0.946,10.188,4.101,7,8,7v1    c0,3.314,2.686,6,6,6H15z" fill="#FFF3AE"/><path d="M14,23c-2.76,0-5-2.24-5-5s2.24-5,5-5c0-3.31,2.69-6,6-6c2.63,0,4.86,1.69,5.67,4.04    c3,0.33,5.33,2.88,5.33,5.96c0,3.31-2.69,6-6,6H14z" fill="#C9F9FB"/><polygon fill="#FFF3AE" points="13,1 12,3 10,4 12,5 13,7 14,5 16,4 14,3   "/></g><g><path d="M26.389,10.14C25.272,7.641,22.777,6,20,6c-3.546,0-6.484,2.649-6.939,6.073    c-0.458,0.072-0.891,0.213-1.309,0.384C10.086,11.616,9,9.902,9,8V7c0-0.553-0.448-1-1-1C5.842,6,3.819,6.847,2.304,8.383    C0.789,9.919-0.029,11.954,0,14.113c0.06,4.288,3.597,7.826,7.885,7.886c0.04,0,0.079,0.001,0.119,0.001    c0.475,0,0.944-0.056,1.409-0.14C10.515,23.167,12.161,24,14,24h3v-2h-3c-2.206,0-4-1.794-4-4s1.794-4,4-4c0.552,0,1-0.447,1-1    c0-2.757,2.243-5,5-5c2.132,0,4.031,1.353,4.725,3.366c0.126,0.365,0.451,0.626,0.836,0.668C28.092,12.312,30,14.447,30,17    c0,2.757-2.243,5-5,5h-2v2h2c3.859,0,7-3.141,7-7C32,13.634,29.628,10.786,26.389,10.14z M7.915,19.999    C4.752,19.955,2.044,17.247,2,14.086c-0.022-1.62,0.591-3.146,1.728-4.299C4.627,8.876,5.764,8.288,7,8.082    c0.026,2.245,1.135,4.297,2.893,5.576C8.738,14.753,8,16.286,8,18c0,0.693,0.124,1.357,0.341,1.977    C8.199,19.983,8.059,20.006,7.915,19.999z" fill="#1A1A1A"/><rect fill="#1A1A1A" height="2" width="2" x="19" y="22"/><path d="M25,18h-8v2h8c1.654,0,3-1.346,3-3s-1.346-3-3-3h-1v2h1c0.552,0,1,0.448,1,1S25.552,18,25,18z" fill="#1A1A1A"/><path d="M21,26H8v2h13c0.552,0,1,0.448,1,1s-0.448,1-1,1h-1v2h1c1.654,0,3-1.346,3-3S22.654,26,21,26z" fill="#1A1A1A"/><path d="M9.553,4.895l1.702,0.851l0.851,1.702C12.275,7.786,12.621,8,13,8s0.725-0.214,0.895-0.553l0.851-1.702    l1.702-0.851C16.786,4.725,17,4.379,17,4s-0.214-0.725-0.553-0.895l-1.702-0.851l-0.851-1.702c-0.339-0.678-1.45-0.678-1.789,0    l-0.851,1.702L9.553,3.105C9.214,3.275,9,3.621,9,4S9.214,4.725,9.553,4.895z M12.447,3.895c0.193-0.097,0.351-0.254,0.447-0.447    L13,3.236l0.105,0.211c0.097,0.193,0.254,0.351,0.447,0.447L13.764,4l-0.211,0.105c-0.193,0.097-0.351,0.254-0.447,0.447L13,4.764    l-0.105-0.211c-0.097-0.193-0.254-0.351-0.447-0.447L12.236,4L12.447,3.895z" fill="#1A1A1A"/><rect fill="#1A1A1A" height="2" width="2" x="12" y="18"/><rect fill="#1A1A1A" height="2" width="2" x="4" y="26"/></g></g></svg>